<svg width="100" height="100" viewBox="0 0 100 100" fill="none" xmlns="http://www.w3.org/2000/svg">
<rect width="100" height="100" rx="50" fill="black"/>
<path d="M17.3612 67.1679C15.4432 63.5808 14.1634 59.8068 13.5006 55.8192C13.0827 53.3051 12.9253 50.7746 13.0328 48.2338C13.1664 45.0744 13.6932 41.9758 14.6302 38.9499C16.6789 32.3338 20.3127 26.7337 25.495 22.1584C30.5252 17.7175 36.3687 14.8873 42.9582 13.6172C44.4093 13.3375 45.8772 13.1692 47.3562 13.0764C48.8008 12.9859 50.2461 12.9786 51.6864 13.0397C54.6282 13.1645 57.5108 13.6777 60.3375 14.5166C63.8262 15.5518 67.0805 17.0825 70.1138 19.0839C71.8552 20.2329 73.4747 21.5363 74.9982 22.9662C77.6522 25.4571 79.8933 28.2711 81.7087 31.4213C83.9289 35.2742 85.4069 39.3946 86.1229 43.7884C86.5267 46.2659 86.6801 48.7568 86.5843 51.2623C86.3841 56.4939 85.1122 61.4565 82.7901 66.1472C81.427 68.9008 79.7343 71.4386 77.731 73.7693C75.592 76.2579 73.1688 78.4288 70.4519 80.2678C66.9621 82.6299 63.1765 84.3295 59.0993 85.4134C55.3272 86.4163 51.4927 86.7254 47.6186 86.5292C43.5148 86.3213 39.5555 85.4007 35.7576 83.8172C28.8618 80.942 23.3563 76.3704 19.1724 70.1953C18.5177 69.229 17.9134 68.2287 17.3612 67.1679ZM74.1644 23.2318C74.1644 23.2318 74.1629 23.2304 74.1447 23.1863C74.0618 23.0999 73.9842 23.0075 73.8952 22.9279C71.5671 20.8462 69.0161 19.0873 66.2374 17.6617C61.5189 15.241 56.4976 13.9601 51.2087 13.7279C49.1502 13.6375 47.0937 13.7471 45.0508 14.0201C41.7297 14.4639 38.5283 15.3449 35.4534 16.6856C30.053 19.0402 25.4881 22.5023 21.7864 27.0759C16.9458 33.0565 14.286 39.9123 13.7964 47.5874C13.6115 50.4871 13.7697 53.3836 14.2986 56.2492C15.2608 61.4628 17.2511 66.2533 20.317 70.5766C24.0234 75.8034 28.7897 79.7845 34.5943 82.5093C38.2991 84.2484 42.1953 85.3084 46.2665 85.6996C48.1359 85.8793 50.0117 85.916 51.8916 85.8013C53.5751 85.6985 55.2447 85.504 56.8959 85.1733C60.6778 84.4161 64.2492 83.0887 67.602 81.1751C72.7727 78.224 76.9703 74.2451 80.1932 69.2439C81.9898 66.4559 83.362 63.4684 84.3363 60.2938C85.1769 57.5549 85.6703 54.7539 85.8287 51.9023C85.9778 49.2189 85.8523 46.5401 85.4129 43.8805C84.9658 41.1745 84.2214 38.5533 83.1726 36.0228C81.4531 31.8746 79.0522 28.1627 75.9405 24.92C75.3759 24.3316 74.8357 23.7129 74.1644 23.2318Z" fill="white"/>
<path d="M74.1652 23.2326C74.0772 23.6817 73.7049 23.933 73.4183 24.218C71.4113 26.2136 69.5567 28.3519 67.598 30.3929C64.9984 33.1017 62.4695 35.8783 59.9009 38.6171C57.6699 40.996 55.4199 43.3571 53.1892 45.7362C50.6044 48.4931 48.0321 51.2617 45.4532 54.0241C43.0057 56.6459 40.5526 59.2625 38.1146 61.8931C37.8679 62.1593 37.6599 62.2274 37.3066 62.123C34.7269 61.3606 32.5178 59.9535 30.487 58.2364C27.7195 55.8963 25.8697 52.9382 24.6982 49.536C24.1602 47.9736 23.801 46.3725 23.6981 44.7151C23.294 38.21 25.6018 32.82 30.4087 28.4828C33.1298 26.0275 36.3451 24.5421 39.9452 23.8917C40.8918 23.7207 41.8496 23.6559 42.8151 23.6307C46.1189 23.5444 49.2311 24.2711 52.1841 25.7316C54.7555 27.0034 56.8426 28.8721 58.7034 31.0183C59.6899 32.1559 60.6462 33.3177 61.4094 34.6232C61.5296 34.8289 61.6336 35.0441 61.7384 35.2424C61.9228 35.2694 62.0164 35.163 62.1014 35.0696C63.1564 33.9112 64.319 32.8615 65.45 31.7816C67.314 30.0018 69.091 28.1359 70.9259 26.3276C71.8948 25.3727 72.862 24.416 73.8324 23.4626C73.9173 23.3792 74.0208 23.3149 74.1392 23.2361C74.1629 23.2305 74.1644 23.2319 74.1652 23.2326ZM35.0745 52.6738C36.5952 54.0242 38.3037 55.1004 40.0542 56.1207C40.3936 56.3184 40.6064 56.2912 40.8642 56.0278C41.5882 55.288 42.3199 54.5555 43.0591 53.8309C44.5118 52.4069 45.9783 50.9969 47.4269 49.5686C49.4065 47.6168 51.2945 45.5726 53.3526 43.6994C53.9043 43.1973 54.4361 42.673 54.9707 42.1523C55.2928 41.8386 55.5214 41.4863 55.4144 40.9985C54.6234 37.3924 52.7804 34.4811 49.6695 32.448C46.9113 30.6454 43.8992 30.0154 40.6729 30.8196C33.9971 32.4838 29.7877 39.2823 31.2715 46.0018C31.8423 48.5868 33.0188 50.8596 35.0745 52.6738Z" fill="white"/>
<path d="M37.2339 66.8701C39.4269 64.4532 41.5945 62.0478 43.7813 59.6599C45.7238 57.5387 47.6801 55.4303 49.5808 53.2709C49.93 52.8742 50.3109 52.5056 50.6358 52.0858C50.8752 51.7766 51.2032 51.6779 51.5914 51.6789C54.6618 51.6861 57.7323 51.6847 60.8028 51.6822C63.6847 51.6799 65.8911 49.9733 66.5706 47.1705C67.0832 45.0566 66.8253 43.0391 65.6273 41.1879C64.9774 40.1837 64.0867 39.4781 62.9303 39.1277C62.8527 39.1042 62.7812 39.0604 62.718 39.0312C62.6881 38.8956 62.7757 38.834 62.8357 38.764C64.2302 37.1376 65.6282 35.5141 67.0194 33.8848C67.1781 33.699 67.3161 33.7532 67.4929 33.841C69.5016 34.8392 71.0448 36.333 72.2054 38.2397C73.3232 40.0762 73.8808 42.0837 74.0542 44.213C74.2681 46.8374 73.8803 49.3642 72.6599 51.7038C71.3301 54.2527 69.3827 56.2006 66.7087 57.3597C66.6111 57.402 66.5182 57.4551 66.4297 57.4998C66.3988 57.7001 66.5267 57.8102 66.6157 57.9305C69.4237 61.7221 72.235 65.5113 75.0422 69.3035C75.2529 69.5882 75.5106 69.8511 75.5843 70.2159C75.4581 70.3345 75.3194 70.2929 75.1938 70.2927C72.581 70.2876 69.9682 70.2784 67.3554 70.2729C67.1314 70.2724 66.9482 70.247 66.7936 70.037C64.8593 67.4098 62.8505 64.8379 60.9631 62.1758C60.1067 60.9679 59.2529 59.7582 58.4097 58.5411C58.2537 58.3159 58.0679 58.2278 57.806 58.2281C55.6868 58.2307 53.5676 58.231 51.4484 58.2245C51.2211 58.2239 51.1393 58.2974 51.1141 58.5309C51.0283 59.3243 51.0713 60.1187 51.0689 60.9121C51.0597 63.8861 51.06 66.8603 51.0749 69.8344C51.0768 70.202 50.9706 70.3061 50.6068 70.3029C48.5841 70.2855 46.5611 70.2918 44.5382 70.2899C44.4901 70.2899 44.4419 70.2898 44.3937 70.2884C43.7923 70.2717 43.8105 70.271 43.7887 69.6564C43.7047 67.2853 43.7693 64.9137 43.7481 62.5424C43.7471 62.4356 43.7647 62.3254 43.6701 62.1612C38.2588 67.4225 32.8611 72.6706 27.4571 77.9249C27.3299 77.7686 27.4202 77.6853 27.4879 77.6106C30.4067 74.3925 33.3272 71.1759 36.2473 67.9591C36.5708 67.6027 36.8936 67.2458 37.2339 66.8701ZM50.1181 54.661C49.9933 55.1043 50.5989 52.9525 50.897 53.0743C51.2839 53.2323 52.2255 53.0023 52.5589 53.2709C52.6437 53.3392 51.6836 56.1922 51.7655 56.0937C51.8409 56.003 51.796 55.9101 51.7339 55.8322C51.6201 55.6895 51.6292 55.5215 51.6145 55.354C51.5752 54.9055 51.837 54.5828 52.0661 54.2478C52.2375 53.9972 52.1676 53.8618 51.89 53.7768C51.2843 53.5914 50.5191 53.9502 50.1181 54.661ZM49.3095 67.5488C49.4688 67.1643 50.1066 67.586 49.8131 67.3453C49.4845 67.0758 50.1059 68.5968 49.8131 68.8266C49.5237 69.0538 48.186 68.9019 48.4402 69.4046C48.4618 69.4474 47.9231 67.6144 47.9483 67.655C48.1297 67.9469 48.2699 68.3168 48.6932 68.2908C49.0933 68.2662 49.151 67.8853 49.3095 67.5488Z" fill="white"/>
</svg>
